<svg width="459" height="459" viewBox="0 0 459 459" fill="none" xmlns="http://www.w3.org/2000/svg">
<g clip-path="url(#clip0_21_87)" filter="url(#filter0_d_21_87)">
<path d="M358.174 190.801C354.45 188.814 350.682 186.914 346.872 185.103C347.973 182.511 349.026 179.896 350.03 177.258C366.179 134.845 366.022 98.5377 347.778 83.6306C330.313 69.3329 296.806 75.8337 260.392 98.4756C256.81 100.711 253.279 103.04 249.799 105.461C248.108 103.203 246.359 100.977 244.552 98.7836C215.956 63.6028 184.485 45.629 162.477 54.0373C141.381 62.095 130.254 94.3928 131.619 137.3C131.763 141.544 132.01 145.787 132.361 150.029C127.399 150.608 122.584 151.306 117.956 152.121C76.5893 159.45 48.072 176.845 44.4569 199.101C40.7216 222.096 63.8428 249.517 102.388 270.128C105.516 271.792 108.688 273.381 111.903 274.895C110.099 279.082 108.413 283.338 106.845 287.663C92.4951 327.281 93.2402 360.7 110.674 374.946C128.681 389.656 163.934 383.273 201.052 360.096C203.989 358.262 206.945 356.302 209.922 354.216C212.661 357.884 215.508 361.476 218.462 364.99C245.518 397.229 274.807 413.234 295.827 405.204C317.556 396.908 329.672 363.101 328.178 319.334C328.061 315.991 327.858 312.565 327.568 309.057C330.025 308.743 332.437 308.399 334.804 308.024C379.505 300.824 410.835 282.533 414.617 259.252C418.234 236.887 395.91 211.091 358.174 190.801ZM268.853 112.118C300.047 92.7202 327.115 87.4609 337.667 96.0768C348.896 105.254 349.023 134.924 335.08 171.545C334.165 173.929 333.211 176.298 332.216 178.654C316.514 172.297 300.405 166.994 283.997 162.78C276.693 147.496 268.364 132.723 259.069 118.562C262.27 116.328 265.527 114.179 268.838 112.116L268.853 112.118ZM150.662 235.87C152.957 242.892 155.416 249.858 158.039 256.769C160.709 263.819 163.551 270.8 166.565 277.712C155.309 274.604 144.22 270.92 133.343 266.672C138.331 256.623 144.142 246.288 150.662 235.87ZM156.716 198.601C153.867 186.907 151.698 175.505 150.171 164.588C161.12 163.937 172.693 163.83 184.668 164.271C179.738 169.771 174.942 175.384 170.281 181.112C165.62 186.84 161.091 192.668 156.693 198.597L156.716 198.601ZM162.094 218.605C168.618 209.233 175.486 200.117 182.698 191.258C189.904 182.403 197.436 173.83 205.294 165.54C216.441 166.496 227.802 167.89 239.207 169.743C250.612 171.596 261.9 173.88 272.767 176.508C277.534 186.828 281.934 197.305 285.969 207.938C290.004 218.571 293.711 229.357 297.089 240.296C290.476 249.69 283.545 258.838 276.295 267.739C269.099 276.595 261.632 285.207 253.894 293.575C242.78 292.561 231.337 291.138 219.769 289.259C208.202 287.38 197.103 285.205 186.428 282.751C181.557 272.361 177.084 261.796 173.008 251.056C168.933 240.316 165.287 229.497 162.071 218.601L162.094 218.605ZM288.696 277.882C293.474 272.02 298.116 266.049 302.623 259.969C305.593 271.39 307.972 282.957 309.753 294.623C297.934 295.338 286.085 295.435 274.255 294.912C279.182 289.333 283.996 283.656 288.696 277.882ZM308.429 223.253C306.072 216.195 303.566 209.192 300.911 202.244C298.33 195.398 295.584 188.604 292.674 181.863C304.237 185.277 315.242 189.107 325.466 193.261C320.293 203.537 314.607 213.547 308.429 223.253ZM246.132 128.088C252.465 137.753 258.307 147.731 263.635 157.984C249.173 154.923 234.588 152.554 219.88 150.877C228.621 142.53 237.42 134.896 246.132 128.088ZM168.209 69.0332C181.761 63.8579 207.476 78.5776 232.172 108.922C233.749 110.864 235.328 112.886 236.889 114.967C223.531 125.447 210.883 136.8 199.028 148.954C182.169 147.752 165.249 147.647 148.376 148.641C148.05 144.704 147.821 140.757 147.688 136.799C146.5 100.016 155.484 73.8917 168.209 69.0332ZM118.609 260.313C115.668 258.933 112.777 257.484 109.936 255.968C92.8935 246.867 79.2951 236.395 70.4863 225.965C62.6015 216.619 59.2332 208.023 60.2653 201.668C62.4587 188.166 85.353 174.203 120.765 167.964C125.213 167.183 129.677 166.533 134.157 166.015C136.536 182.82 140.021 199.449 144.592 215.794C134.965 230.048 126.285 244.92 118.609 260.313ZM192.573 346.466C176.163 356.718 160.324 363.303 146.908 365.738C134.856 367.919 125.76 366.561 120.792 362.501C110.213 353.857 109.588 327.011 121.889 293.139C123.343 289.154 124.911 285.187 126.592 281.239C142.461 287.452 158.735 292.579 175.301 296.583C182.782 311.951 191.261 326.812 200.684 341.072C198.019 342.958 195.313 344.751 192.573 346.466ZM213.542 331.494C207.363 322.172 201.34 311.988 195.61 301.164C202.655 302.593 209.85 303.905 217.197 305.098C224.738 306.323 232.229 307.374 239.64 308.237C231.341 316.428 222.631 324.19 213.542 331.494ZM305.983 369.139C301.844 380.687 296.12 387.909 290.121 390.196C277.353 395.071 253.836 382.22 230.708 354.648C228.054 351.494 225.432 348.147 222.778 344.653C236.015 334.024 248.522 322.517 260.215 310.21C277.313 311.521 294.481 311.652 311.598 310.602C311.858 313.778 312.04 316.879 312.145 319.904C312.81 339.245 310.589 356.281 305.983 369.139ZM332.258 292.168C330.129 292.511 327.942 292.821 325.726 293.11C323.159 276.198 319.447 259.48 314.613 243.071C324.085 229.195 332.616 214.699 340.15 199.682C343.757 201.4 347.248 203.154 350.588 204.955C382.923 222.334 400.98 243.218 398.797 256.659C396.467 271.002 370.872 285.951 332.258 292.168Z" fill="#1E1E1E" fill-opacity="0.7"/>
<path d="M224.15 262.292C230.709 263.379 237.444 262.496 243.501 259.753C249.557 257.011 254.664 252.533 258.175 246.886C261.685 241.239 263.44 234.678 263.219 228.033C262.998 221.387 260.81 214.957 256.932 209.557C253.054 204.156 247.66 200.027 241.434 197.694C235.208 195.36 228.43 194.927 221.958 196.448C215.485 197.969 209.61 201.377 205.075 206.24C200.541 211.102 197.551 217.201 196.485 223.764C195.769 228.11 195.918 232.555 196.921 236.845C197.925 241.134 199.763 245.183 202.333 248.761C204.902 252.339 208.151 255.376 211.895 257.698C215.638 260.019 219.803 261.581 224.15 262.292Z" fill="#1E1E1E" fill-opacity="0.7"/>
</g>
<defs>
<filter id="filter0_d_21_87" x="-4" y="0" width="466.959" height="466.959" filterUnits="userSpaceOnUse" color-interpolation-filters="sRGB">
<feFlood flood-opacity="0" result="BackgroundImageFix"/>
<feColorMatrix in="SourceAlpha" type="matrix" values="0 0 0 0 0 0 0 0 0 0 0 0 0 0 0 0 0 0 127 0" result="hardAlpha"/>
<feOffset dy="4"/>
<feGaussianBlur stdDeviation="2"/>
<feComposite in2="hardAlpha" operator="out"/>
<feColorMatrix type="matrix" values="0 0 0 0 0 0 0 0 0 0 0 0 0 0 0 0 0 0 0.5 0"/>
<feBlend mode="normal" in2="BackgroundImageFix" result="effect1_dropShadow_21_87"/>
<feBlend mode="normal" in="SourceGraphic" in2="effect1_dropShadow_21_87" result="shape"/>
</filter>
<clipPath id="clip0_21_87">
<rect width="400" height="400" fill="white" transform="translate(64.1345) rotate(9.22641)"/>
</clipPath>
</defs>
</svg>
